HIERARCHY
ROOT root
{
	OFFSET	0	13.1	24.9
	CHANNELS 6  Xposition Yposition Zposition Xrotation Yrotation Zrotation
	JOINT spine_1
	{
		OFFSET	0	9.99999	0
		CHANNELS 3  Xrotation Yrotation Zrotation
		JOINT spine_2
		{
			OFFSET	0	112	-10
			CHANNELS 3  Xrotation Yrotation Zrotation
			JOINT spine_3
			{
				OFFSET	0	206.5	19.3
				CHANNELS 3  Xrotation Yrotation Zrotation
				JOINT spine_4
				{
					OFFSET	0	110.4	14.6
					CHANNELS 3  Xrotation Yrotation Zrotation
					JOINT neck_1
					{
						OFFSET	0	71.8	-50.3
						CHANNELS 3  Xrotation Yrotation Zrotation
						JOINT neck_2
						{
							OFFSET	0	86.2	-25.8
							CHANNELS 3  Xrotation Yrotation Zrotation
							JOINT head_ee
							{
								OFFSET	0	179.8	-8.7
								CHANNELS 3  Xrotation Yrotation Zrotation
								End Site
								{
									OFFSET	1	0	0
								}
							}
						}
					}
					JOINT left_clavicle
					{
						OFFSET	-43.2	22.4	-70.8
						CHANNELS 3  Xrotation Yrotation Zrotation
						JOINT left_shoulder
						{
							OFFSET	-93.9	-5.79999	48.7
							CHANNELS 3  Xrotation Yrotation Zrotation
							JOINT left_elbow
							{
								OFFSET	-291.4	-30.8	15.2
								CHANNELS 3  Xrotation Yrotation Zrotation
								JOINT left_lowarm_twist
								{
									OFFSET	-110.7	-3.89999	13.6
									CHANNELS 3  Xrotation Yrotation Zrotation
									JOINT left_hand
									{
										OFFSET	-110.7	-3.89999	13.6
										CHANNELS 3  Xrotation Yrotation Zrotation
										JOINT left_ee
										{
											OFFSET	-80.8	-5.10001	12.1
											CHANNELS 3  Xrotation Yrotation Zrotation
											End Site
											{
												OFFSET	1	0	0
											}
										}
									}
								}
							}
						}
					}
					JOINT right_clavicle
					{
						OFFSET	43.2	22.4	-70.8
						CHANNELS 3  Xrotation Yrotation Zrotation
						JOINT right_shoulder
						{
							OFFSET	93.9	-5.79999	48.7
							CHANNELS 3  Xrotation Yrotation Zrotation
							JOINT right_elbow
							{
								OFFSET	291.4	-30.8	15.2
								CHANNELS 3  Xrotation Yrotation Zrotation
								JOINT right_lowarm_twist
								{
									OFFSET	110.7	-3.89999	13.6
									CHANNELS 3  Xrotation Yrotation Zrotation
									JOINT right_hand
									{
										OFFSET	110.7	-3.89999	13.6
										CHANNELS 3  Xrotation Yrotation Zrotation
										JOINT right_ee
										{
											OFFSET	80.8	-5.10001	12.1
											CHANNELS 3  Xrotation Yrotation Zrotation
											End Site
											{
												OFFSET	1	0	0
											}
										}
									}
								}
							}
						}
					}
				}
			}
		}
	}
	JOINT left_hip
	{
		OFFSET	-82.8	-127.5	0.300001
		CHANNELS 3  Xrotation Yrotation Zrotation
		JOINT left_knee
		{
			OFFSET	-28.2	-396.7	2.2
			CHANNELS 3  Xrotation Yrotation Zrotation
			JOINT left_ankle
			{
				OFFSET	-11.7	-411.3	35.4
				CHANNELS 3  Xrotation Yrotation Zrotation
				JOINT left_toes
				{
					OFFSET	0	-60	-88.6
					CHANNELS 3  Xrotation Yrotation Zrotation
					JOINT left_foot_ee
					{
						OFFSET	-22.5	-16.5	-42.2
						CHANNELS 3  Xrotation Yrotation Zrotation
						End Site
						{
							OFFSET	1	0	0
						}
					}
				}
			}
		}
	}
	JOINT right_hip
	{
		OFFSET	82.8	-127.5	0.300001
		CHANNELS 3  Xrotation Yrotation Zrotation
		JOINT right_knee
		{
			OFFSET	28.2	-396.7	2.2
			CHANNELS 3  Xrotation Yrotation Zrotation
			JOINT right_ankle
			{
				OFFSET	11.7	-411.3	35.4
				CHANNELS 3  Xrotation Yrotation Zrotation
				JOINT right_toes
				{
					OFFSET	0	-60	-88.6
					CHANNELS 3  Xrotation Yrotation Zrotation
					JOINT right_foot_ee
					{
						OFFSET	22.5	-16.5	-42.2
						CHANNELS 3  Xrotation Yrotation Zrotation
						End Site
						{
							OFFSET	1	0	0
						}
					}
				}
			}
		}
	}
}
MOTION
Frames: 6
Frame Time: 0.02
1235.45839148 719.462 -1758.11356989 -28.3102325771 14.5019257756 4.53234120666 9.8181 0.169431 1.13449 9.81881 0.0969018 1.14297 9.81916 0.0506971 1.14595 9.81741 0.231031 1.12357 -14.1257 6.58201 -3.79604 -14.257 14.8646 -1.49779 -0.0 0.0 -0.0 -4.13106 20.8898 -3.55164 -20.814 -40.4356 74.505 0.225727 -6.38038 0.0125814 -52.1992 -4.33164 4.79295 1.82949 -28.2058 -0.21396 -0.0 0.0 -0.0 13.3307 25.621 -26.4876 -27.7912 28.7937 -61.8247 0.761917 20.678 -0.139002 -22.016 1.27157 -2.49411 1.64332 8.45348 -7.52709 0.0 0.0 0.0 55.8737 6.6315 -0.73876 -63.3345 -2.57061 8.88226 21.3542 23.5144 -3.02132 -4.33619 0.0 0.0 -0.0 0.0 -0.0 42.8438 3.16138 2.68322 -17.0369 -0.319146 -2.58538 29.8303 22.3925 4.40177 11.3837 -0.0 -0.0 0.0 0.0 0.0 
1213.02396816 713.895 -1771.63223264 -28.4890897674 16.6661956447 5.09835146791 9.99321 0.344784 1.12305 9.99387 0.272627 1.14271 9.99773 0.229917 1.15206 9.99611 0.408968 1.1013 -13.8139 5.72334 -2.18152 -13.9109 12.249 -0.279551 -0.0 0.0 -0.0 -5.65985 20.4984 -5.90771 -18.6477 -41.2034 78.3103 0.271996 -7.67393 0.0182422 -52.1806 -4.32943 4.79206 3.13749 -26.4872 9.0209 -0.0 0.0 -0.0 13.3356 26.2826 -26.4201 -26.5362 27.4922 -59.4727 0.971525 25.6994 -0.221617 -23.0442 1.35363 -2.59717 1.51938 10.8902 -5.63066 0.0 0.0 0.0 56.5515 5.40261 -0.190885 -62.4185 -2.46672 8.78637 22.3156 22.6657 -3.13071 -6.73145 0.0 0.0 -0.0 0.0 -0.0 41.6753 2.54781 3.62318 -18.6729 -0.30907 -2.83619 36.5103 20.0357 5.02583 12.7404 -0.0 -0.0 0.0 0.0 0.0 
1201.39304814 714.472 -1779.42636943 -29.1608810629 18.5171744991 5.54642060996 10.1121 0.250724 1.19809 10.1129 0.173984 1.21161 10.1148 0.131246 1.21698 10.1128 0.321785 1.18099 -14.8265 6.01419 -1.1089 -14.9493 12.1577 0.942065 -0.0 0.0 -0.0 -4.66886 18.0431 -5.03568 -19.9455 -40.0529 78.9645 0.194404 -5.50087 0.00933931 -51.3361 -4.22916 4.75095 4.36168 -26.4595 17.0587 -0.0 0.0 -0.0 13.1154 26.1831 -25.9222 -23.5517 26.594 -58.5114 1.13368 29.3173 -0.29655 -22.5679 1.31538 -2.54961 0.60517 7.95035 -0.711121 0.0 0.0 0.0 59.3757 3.95931 0.270825 -60.6385 -2.26932 8.59541 14.3048 25.7643 -2.10606 -8.87237 0.0 0.0 -0.0 0.0 -0.0 40.6134 0.932225 4.83704 -16.7903 -0.320043 -2.54755 35.8593 15.1035 4.78395 9.82766 -0.0 -0.0 0.0 0.0 0.0 
1177.14991225 713.432 -1783.61336146 -30.429959625 22.8035531759 8.1835042478 10.192 0.146926 1.22136 10.1928 0.0689159 1.22823 10.1924 0.0273011 1.22986 10.1904 0.221177 1.21012 -14.432 4.10119 0.475488 -14.4766 7.54553 1.77135 -0.0 0.0 -0.0 -5.46661 18.8171 -6.07117 -22.5623 -40.9373 78.0435 0.358825 -10.0793 0.0316437 -49.1466 -3.97211 4.63753 5.40768 -27.8091 23.2453 -0.0 0.0 -0.0 12.8741 23.9542 -25.6103 -21.6929 23.9281 -56.7455 1.37049 34.1708 -0.421255 -25.212 1.53263 -2.80958 -0.852327 5.60976 8.15271 0.0 0.0 0.0 61.244 3.4289 0.0111166 -59.2647 -2.12111 8.44394 10.3003 24.3045 -1.52479 -10.3702 0.0 0.0 -0.0 0.0 -0.0 39.5794 -0.665284 5.7832 -16.7425 -0.320198 -2.54022 38.6668 15.5337 5.0636 11.0783 -0.0 -0.0 0.0 0.0 0.0 
1149.59037596 709.008 -1803.28629691 -29.6762721558 24.4954867158 8.49491756216 10.2745 0.147097 1.27758 10.2754 0.0655106 1.28434 10.2748 0.0238461 1.28579 10.2725 0.226597 1.2659 -15.7803 5.42992 1.55216 -15.8587 9.50293 3.33721 -0.0 0.0 -0.0 -5.35863 18.0579 -6.10491 -24.9794 -40.8692 78.3893 0.305809 -8.61436 0.0230325 -47.2375 -3.75164 4.53068 6.39557 -27.3724 30.4482 -0.0 0.0 -0.0 13.1216 23.6653 -26.2136 -22.4938 20.6694 -56.7802 1.73996 40.7554 -0.646358 -30.301 1.98359 -3.28072 -2.72337 10.1365 23.3076 0.0 0.0 0.0 61.7526 2.41243 -0.430741 -51.6216 -1.36631 7.54045 2.60504 24.0211 -0.393448 -13.6609 0.0 0.0 -0.0 0.0 -0.0 36.1131 -0.543315 6.10317 -16.5558 -0.320746 -2.51159 39.1756 15.487 5.10821 14.5018 -0.0 -0.0 0.0 0.0 0.0 
1130.45420773 708.337 -1819.51980396 -29.6972962576 25.9766477698 9.9635008368 10.2611 0.339293 1.25233 10.262 0.258923 1.27138 10.2657 0.217423 1.27912 10.2636 0.416693 1.22875 -15.1947 5.90765 1.3169 -15.2877 10.5271 3.22803 -0.0 0.0 -0.0 -4.90735 18.3503 -5.32922 -26.1521 -42.6346 77.698 0.220385 -6.23059 0.0119947 -47.7797 -3.81389 4.56177 7.09482 -24.39 38.0273 -0.0 0.0 -0.0 13.0947 22.9725 -26.2186 -21.0356 18.3379 -57.076 1.80742 41.8355 -0.690878 -30.8475 2.03447 -3.3289 -3.75479 17.1518 34.2103 0.0 0.0 0.0 62.2443 2.17734 -1.10917 -47.1157 -0.98035 6.96411 -3.06521 26.2315 0.474088 -15.3793 0.0 0.0 -0.0 0.0 -0.0 34.017 -3.8397 6.1341 -15.3633 -0.322039 -2.32862 38.6988 19.5686 5.21647 14.9555 -0.0 -0.0 0.0 0.0 0.0 
